<svg width="18" height="18" viewBox="0 0 18 18" fill="none" xmlns="http://www.w3.org/2000/svg">
<path d="M9 1.5C4.86 1.5 1.5 4.86 1.5 9C1.5 13.14 4.86 16.5 9 16.5C13.14 16.5 16.5 13.14 16.5 9C16.5 4.86 13.14 1.5 9 1.5ZM4.95 8.4225C5.0775 7.53 5.475 6.7275 6.0975 6.0975C7.5975 4.605 9.96 4.5225 11.565 5.8275V5.115C11.565 4.8075 11.82 4.5525 12.1275 4.5525C12.435 4.5525 12.69 4.8075 12.69 5.115V7.1175C12.69 7.425 12.435 7.68 12.1275 7.68H10.125C9.8175 7.68 9.5625 7.425 9.5625 7.1175C9.5625 6.81 9.8175 6.555 10.125 6.555H10.6875C9.525 5.745 7.92 5.8575 6.885 6.8925C6.435 7.3425 6.15 7.9275 6.0525 8.58C6.015 8.8575 5.775 9.06 5.4975 9.06C5.4675 9.06 5.445 9.06 5.415 9.0525C5.1225 9.015 4.905 8.73 4.95 8.4225ZM11.9025 11.9025C11.1 12.705 10.05 13.1025 9 13.1025C8.085 13.1025 7.1775 12.78 6.4275 12.1725V12.8775C6.4275 13.185 6.1725 13.44 5.865 13.44C5.5575 13.44 5.3025 13.185 5.3025 12.8775V10.875C5.3025 10.5675 5.5575 10.3125 5.865 10.3125H7.8675C8.175 10.3125 8.43 10.5675 8.43 10.875C8.43 11.1825 8.175 11.4375 7.8675 11.4375H7.305C8.4675 12.2475 10.0725 12.135 11.1075 11.1C11.5575 10.65 11.8425 10.065 11.94 9.4125C11.985 9.105 12.2625 8.8875 12.5775 8.9325C12.885 8.9775 13.095 9.2625 13.0575 9.57C12.9225 10.4775 12.525 11.28 11.9025 11.9025Z" fill="#292D32"/>
</svg>
