<svg width="162" height="30" viewBox="0 0 162 30" fill="none" xmlns="http://www.w3.org/2000/svg">
<path d="M21.964 2.65V8.008H14.364V29.25H8.36V8.008H0.76V2.65H21.964ZM34.3084 9.946C34.9164 9.946 35.8664 9.946 36.6264 10.25V15.608C35.7524 15.304 35.1824 15.228 34.1184 15.228C31.4584 15.228 29.0644 16.596 29.0644 21.764V29.25H23.2884V10.25H29.0644V15.646C29.4824 12.872 30.7364 9.946 34.3084 9.946ZM52.3411 10.25H58.1171V29.25H52.3411V24.956C51.4291 28.072 49.4531 29.63 46.3371 29.63C41.8151 29.63 39.6491 26.932 39.6491 21.346V10.25H45.4251V21.004C45.4251 23.322 46.4891 24.386 48.6171 24.386C50.8971 24.386 52.3411 22.904 52.3411 19.484V10.25ZM80.7776 19.598C80.7776 20.244 80.7776 20.738 80.7396 21.574H67.8196C68.1616 24.158 69.3776 25.222 71.8096 25.222C73.6336 25.222 74.5076 24.652 75.4196 22.828L80.3596 24.576C79.0676 27.844 76.2176 29.63 71.6576 29.63C65.7676 29.63 61.8156 25.754 61.8156 19.902C61.8156 13.898 65.6916 9.87 71.4676 9.87C77.0536 9.87 80.7776 13.746 80.7776 19.598ZM71.5816 14.088C69.2636 14.088 68.1236 15.152 67.8196 17.812H75.0776C75.0396 15.038 73.8996 14.088 71.5816 14.088ZM109.334 9.87C113.628 9.87 115.642 12.53 115.642 18.154V29.25H109.866V18.496C109.866 16.33 108.84 15.114 106.674 15.114C104.394 15.114 102.95 16.558 102.95 20.776V29.25H97.1737V18.496C97.1737 16.178 96.1097 15.114 93.9817 15.114C91.7017 15.114 90.2577 16.596 90.2577 20.016V29.25H84.4817V10.25H90.2577V14.544C91.1697 11.428 93.1457 9.87 96.2617 9.87C99.6437 9.87 101.734 11.39 102.532 14.506C103.786 11.314 106.142 9.87 109.334 9.87ZM133.856 10.25H139.632V29.25H133.856V24.994C132.792 27.996 130.626 29.63 127.586 29.63C122.152 29.63 119.15 25.678 119.15 19.788C119.15 13.822 122 9.87 127.206 9.87C130.436 9.87 132.754 11.542 133.856 14.658V10.25ZM129.41 24.386C132.564 24.386 134.046 22.904 134.046 19.788C134.046 16.596 132.564 15.114 129.41 15.114C126.37 15.114 124.926 16.596 124.926 19.788C124.926 22.904 126.37 24.386 129.41 24.386ZM147.412 7.78C145.094 7.78 143.802 6.526 143.802 4.246C143.802 2.042 145.094 0.825999 147.412 0.825999C149.768 0.825999 151.098 2.042 151.098 4.246C151.098 6.526 149.768 7.78 147.412 7.78ZM144.562 29.25V10.25H150.338V29.25H144.562ZM155.286 29.25V2.65H161.062V29.25H155.286Z" fill="#3D6BD8"/>
</svg>
