<svg width="231" height="277" viewBox="0 0 231 277" fill="none" xmlns="http://www.w3.org/2000/svg">
<path d="M15.9231 29.3516L23.9622 2.35156H31.7903L19.9075 36.4766H14.7512L15.9231 29.3516ZM8.51685 2.35156L16.5325 29.3516L17.7512 36.4766H12.5481L0.735596 2.35156H8.51685ZM45.1965 36.9453C43.2278 36.9453 41.4622 36.6328 39.8997 36.0078C38.3372 35.3672 37.009 34.4844 35.9153 33.3594C34.8372 32.2344 34.009 30.9297 33.4309 29.4453C32.8528 27.9453 32.5637 26.3516 32.5637 24.6641V23.7266C32.5637 21.8047 32.8372 20.0469 33.384 18.4531C33.9309 16.8594 34.7122 15.4766 35.7278 14.3047C36.759 13.1328 38.009 12.2344 39.4778 11.6094C40.9465 10.9688 42.6028 10.6484 44.4465 10.6484C46.2434 10.6484 47.8372 10.9453 49.2278 11.5391C50.6184 12.1328 51.7825 12.9766 52.72 14.0703C53.6731 15.1641 54.3918 16.4766 54.8762 18.0078C55.3606 19.5234 55.6028 21.2109 55.6028 23.0703V25.8828H35.4465V21.3828H48.97V20.8672C48.97 19.9297 48.7981 19.0938 48.4543 18.3594C48.1262 17.6094 47.6262 17.0156 46.9543 16.5781C46.2825 16.1406 45.4231 15.9219 44.3762 15.9219C43.4856 15.9219 42.72 16.1172 42.0793 16.5078C41.4387 16.8984 40.9153 17.4453 40.509 18.1484C40.1184 18.8516 39.8215 19.6797 39.6184 20.6328C39.4309 21.5703 39.3372 22.6016 39.3372 23.7266V24.6641C39.3372 25.6797 39.4778 26.6172 39.759 27.4766C40.0559 28.3359 40.47 29.0781 41.0012 29.7031C41.5481 30.3281 42.2043 30.8125 42.97 31.1562C43.7512 31.5 44.634 31.6719 45.6184 31.6719C46.8372 31.6719 47.97 31.4375 49.0168 30.9688C50.0793 30.4844 50.9934 29.7578 51.759 28.7891L55.0403 32.3516C54.509 33.1172 53.7825 33.8516 52.8606 34.5547C51.9543 35.2578 50.8606 35.8359 49.5793 36.2891C48.2981 36.7266 46.8372 36.9453 45.1965 36.9453ZM66.1965 16.6484V36.4766H59.4465V11.1172H65.7981L66.1965 16.6484ZM73.8372 10.9531L73.72 17.2109C73.3918 17.1641 72.9934 17.125 72.5247 17.0938C72.0715 17.0469 71.6575 17.0234 71.2825 17.0234C70.3293 17.0234 69.5012 17.1484 68.7981 17.3984C68.1106 17.6328 67.5325 17.9844 67.0637 18.4531C66.6106 18.9219 66.2668 19.4922 66.0325 20.1641C65.8137 20.8359 65.6887 21.6016 65.6575 22.4609L64.2981 22.0391C64.2981 20.3984 64.4622 18.8906 64.7903 17.5156C65.1184 16.125 65.595 14.9141 66.22 13.8828C66.8606 12.8516 67.6418 12.0547 68.5637 11.4922C69.4856 10.9297 70.5403 10.6484 71.7278 10.6484C72.1028 10.6484 72.4856 10.6797 72.8762 10.7422C73.2668 10.7891 73.5872 10.8594 73.8372 10.9531ZM84.97 33.6172L91.6965 11.1172H98.9387L88.7434 40.2969C88.5247 40.9375 88.2278 41.625 87.8528 42.3594C87.4934 43.0938 87.0012 43.7891 86.3762 44.4453C85.7668 45.1172 84.9934 45.6641 84.0559 46.0859C83.134 46.5078 82.0012 46.7188 80.6575 46.7188C80.0168 46.7188 79.4934 46.6797 79.0872 46.6016C78.6809 46.5234 78.1965 46.4141 77.634 46.2734V41.3281C77.8059 41.3281 77.9856 41.3281 78.1731 41.3281C78.3606 41.3438 78.5403 41.3516 78.7122 41.3516C79.6028 41.3516 80.3293 41.25 80.8918 41.0469C81.4543 40.8438 81.9075 40.5312 82.2512 40.1094C82.595 39.7031 82.8684 39.1719 83.0715 38.5156L84.97 33.6172ZM82.1575 11.1172L87.6653 29.4922L88.6262 36.6406L84.0325 37.1328L74.9153 11.1172H82.1575ZM129.642 11.1172H135.759V35.6328C135.759 37.9453 135.243 39.9062 134.212 41.5156C133.197 43.1406 131.775 44.3672 129.947 45.1953C128.118 46.0391 125.993 46.4609 123.572 46.4609C122.509 46.4609 121.384 46.3203 120.197 46.0391C119.025 45.7578 117.9 45.3203 116.822 44.7266C115.759 44.1328 114.868 43.3828 114.15 42.4766L117.126 38.4922C117.907 39.3984 118.814 40.1016 119.845 40.6016C120.876 41.1172 122.017 41.375 123.267 41.375C124.486 41.375 125.517 41.1484 126.361 40.6953C127.204 40.2578 127.853 39.6094 128.306 38.75C128.759 37.9062 128.986 36.8828 128.986 35.6797V16.9766L129.642 11.1172ZM112.579 24.1016V23.6094C112.579 21.6719 112.814 19.9141 113.282 18.3359C113.767 16.7422 114.447 15.375 115.322 14.2344C116.212 13.0938 117.29 12.2109 118.556 11.5859C119.822 10.9609 121.251 10.6484 122.845 10.6484C124.532 10.6484 125.947 10.9609 127.087 11.5859C128.228 12.2109 129.165 13.1016 129.9 14.2578C130.634 15.3984 131.204 16.75 131.611 18.3125C132.032 19.8594 132.361 21.5547 132.595 23.3984V24.4766C132.361 26.2422 132.009 27.8828 131.54 29.3984C131.072 30.9141 130.454 32.2422 129.689 33.3828C128.923 34.5078 127.97 35.3828 126.829 36.0078C125.704 36.6328 124.361 36.9453 122.798 36.9453C121.236 36.9453 119.822 36.625 118.556 35.9844C117.306 35.3438 116.236 34.4453 115.345 33.2891C114.454 32.1328 113.767 30.7734 113.282 29.2109C112.814 27.6484 112.579 25.9453 112.579 24.1016ZM119.329 23.6094V24.1016C119.329 25.1484 119.431 26.125 119.634 27.0312C119.837 27.9375 120.15 28.7422 120.572 29.4453C121.009 30.1328 121.548 30.6719 122.189 31.0625C122.845 31.4375 123.618 31.625 124.509 31.625C125.743 31.625 126.751 31.3672 127.532 30.8516C128.314 30.3203 128.9 29.5938 129.29 28.6719C129.681 27.75 129.907 26.6875 129.97 25.4844V22.4141C129.939 21.4297 129.806 20.5469 129.572 19.7656C129.337 18.9688 129.009 18.2891 128.587 17.7266C128.165 17.1641 127.618 16.7266 126.947 16.4141C126.275 16.1016 125.478 15.9453 124.556 15.9453C123.665 15.9453 122.892 16.1484 122.236 16.5547C121.595 16.9453 121.056 17.4844 120.618 18.1719C120.197 18.8594 119.876 19.6719 119.657 20.6094C119.439 21.5312 119.329 22.5312 119.329 23.6094ZM139.931 24.0547V23.5625C139.931 21.7031 140.197 19.9922 140.728 18.4297C141.259 16.8516 142.032 15.4844 143.048 14.3281C144.064 13.1719 145.314 12.2734 146.798 11.6328C148.282 10.9766 149.986 10.6484 151.907 10.6484C153.829 10.6484 155.54 10.9766 157.04 11.6328C158.54 12.2734 159.798 13.1719 160.814 14.3281C161.845 15.4844 162.626 16.8516 163.157 18.4297C163.689 19.9922 163.954 21.7031 163.954 23.5625V24.0547C163.954 25.8984 163.689 27.6094 163.157 29.1875C162.626 30.75 161.845 32.1172 160.814 33.2891C159.798 34.4453 158.548 35.3438 157.064 35.9844C155.579 36.625 153.876 36.9453 151.954 36.9453C150.032 36.9453 148.322 36.625 146.822 35.9844C145.337 35.3438 144.079 34.4453 143.048 33.2891C142.032 32.1172 141.259 30.75 140.728 29.1875C140.197 27.6094 139.931 25.8984 139.931 24.0547ZM146.681 23.5625V24.0547C146.681 25.1172 146.775 26.1094 146.962 27.0312C147.15 27.9531 147.447 28.7656 147.853 29.4688C148.275 30.1562 148.822 30.6953 149.493 31.0859C150.165 31.4766 150.986 31.6719 151.954 31.6719C152.892 31.6719 153.697 31.4766 154.368 31.0859C155.04 30.6953 155.579 30.1562 155.986 29.4688C156.392 28.7656 156.689 27.9531 156.876 27.0312C157.079 26.1094 157.181 25.1172 157.181 24.0547V23.5625C157.181 22.5312 157.079 21.5625 156.876 20.6562C156.689 19.7344 156.384 18.9219 155.962 18.2188C155.556 17.5 155.017 16.9375 154.345 16.5312C153.673 16.125 152.861 15.9219 151.907 15.9219C150.954 15.9219 150.142 16.125 149.47 16.5312C148.814 16.9375 148.275 17.5 147.853 18.2188C147.447 18.9219 147.15 19.7344 146.962 20.6562C146.775 21.5625 146.681 22.5312 146.681 23.5625ZM167.025 24.0547V23.5625C167.025 21.7031 167.29 19.9922 167.822 18.4297C168.353 16.8516 169.126 15.4844 170.142 14.3281C171.157 13.1719 172.407 12.2734 173.892 11.6328C175.376 10.9766 177.079 10.6484 179.001 10.6484C180.923 10.6484 182.634 10.9766 184.134 11.6328C185.634 12.2734 186.892 13.1719 187.907 14.3281C188.939 15.4844 189.72 16.8516 190.251 18.4297C190.782 19.9922 191.048 21.7031 191.048 23.5625V24.0547C191.048 25.8984 190.782 27.6094 190.251 29.1875C189.72 30.75 188.939 32.1172 187.907 33.2891C186.892 34.4453 185.642 35.3438 184.157 35.9844C182.673 36.625 180.97 36.9453 179.048 36.9453C177.126 36.9453 175.415 36.625 173.915 35.9844C172.431 35.3438 171.173 34.4453 170.142 33.2891C169.126 32.1172 168.353 30.75 167.822 29.1875C167.29 27.6094 167.025 25.8984 167.025 24.0547ZM173.775 23.5625V24.0547C173.775 25.1172 173.868 26.1094 174.056 27.0312C174.243 27.9531 174.54 28.7656 174.947 29.4688C175.368 30.1562 175.915 30.6953 176.587 31.0859C177.259 31.4766 178.079 31.6719 179.048 31.6719C179.986 31.6719 180.79 31.4766 181.462 31.0859C182.134 30.6953 182.673 30.1562 183.079 29.4688C183.486 28.7656 183.782 27.9531 183.97 27.0312C184.173 26.1094 184.275 25.1172 184.275 24.0547V23.5625C184.275 22.5312 184.173 21.5625 183.97 20.6562C183.782 19.7344 183.478 18.9219 183.056 18.2188C182.65 17.5 182.111 16.9375 181.439 16.5312C180.767 16.125 179.954 15.9219 179.001 15.9219C178.048 15.9219 177.236 16.125 176.564 16.5312C175.907 16.9375 175.368 17.5 174.947 18.2188C174.54 18.9219 174.243 19.7344 174.056 20.6562C173.868 21.5625 173.775 22.5312 173.775 23.5625ZM210.173 30.9453V0.476562H216.97V36.4766H210.853L210.173 30.9453ZM194.142 24.1016V23.6094C194.142 21.6719 194.361 19.9141 194.798 18.3359C195.236 16.7422 195.876 15.375 196.72 14.2344C197.564 13.0938 198.603 12.2109 199.837 11.5859C201.072 10.9609 202.478 10.6484 204.056 10.6484C205.54 10.6484 206.837 10.9609 207.947 11.5859C209.072 12.2109 210.025 13.1016 210.806 14.2578C211.603 15.3984 212.243 16.75 212.728 18.3125C213.212 19.8594 213.564 21.5547 213.782 23.3984V24.4766C213.564 26.2422 213.212 27.8828 212.728 29.3984C212.243 30.9141 211.603 32.2422 210.806 33.3828C210.025 34.5078 209.072 35.3828 207.947 36.0078C206.822 36.6328 205.509 36.9453 204.009 36.9453C202.431 36.9453 201.025 36.625 199.79 35.9844C198.572 35.3438 197.54 34.4453 196.697 33.2891C195.868 32.1328 195.236 30.7734 194.798 29.2109C194.361 27.6484 194.142 25.9453 194.142 24.1016ZM200.892 23.6094V24.1016C200.892 25.1484 200.97 26.125 201.126 27.0312C201.298 27.9375 201.572 28.7422 201.947 29.4453C202.337 30.1328 202.837 30.6719 203.447 31.0625C204.072 31.4375 204.829 31.625 205.72 31.625C206.876 31.625 207.829 31.3672 208.579 30.8516C209.329 30.3203 209.9 29.5938 210.29 28.6719C210.697 27.75 210.931 26.6875 210.993 25.4844V22.4141C210.947 21.4297 210.806 20.5469 210.572 19.7656C210.353 18.9688 210.025 18.2891 209.587 17.7266C209.165 17.1641 208.634 16.7266 207.993 16.4141C207.368 16.1016 206.626 15.9453 205.767 15.9453C204.892 15.9453 204.142 16.1484 203.517 16.5547C202.892 16.9453 202.384 17.4844 201.993 18.1719C201.618 18.8594 201.337 19.6719 201.15 20.6094C200.978 21.5312 200.892 22.5312 200.892 23.6094ZM10.4387 89.9141L15.7122 71.1172H20.0012L18.6184 78.5L13.345 96.4766H9.75903L10.4387 89.9141ZM7.76685 71.1172L11.5403 89.8906L11.8918 96.4766H7.6731L1.25122 71.1172H7.76685ZM24.8293 89.5859L28.509 71.1172H35.0481L28.6262 96.4766H24.4309L24.8293 89.5859ZM20.5872 71.1172L25.8372 89.7734L26.5637 96.4766H22.9543L17.6809 78.5234L16.345 71.1172H20.5872ZM37.3684 84.0547V83.5625C37.3684 81.7031 37.634 79.9922 38.1653 78.4297C38.6965 76.8516 39.47 75.4844 40.4856 74.3281C41.5012 73.1719 42.7512 72.2734 44.2356 71.6328C45.72 70.9766 47.4231 70.6484 49.345 70.6484C51.2668 70.6484 52.9778 70.9766 54.4778 71.6328C55.9778 72.2734 57.2356 73.1719 58.2512 74.3281C59.2825 75.4844 60.0637 76.8516 60.595 78.4297C61.1262 79.9922 61.3918 81.7031 61.3918 83.5625V84.0547C61.3918 85.8984 61.1262 87.6094 60.595 89.1875C60.0637 90.75 59.2825 92.1172 58.2512 93.2891C57.2356 94.4453 55.9856 95.3438 54.5012 95.9844C53.0168 96.625 51.3137 96.9453 49.3918 96.9453C47.47 96.9453 45.759 96.625 44.259 95.9844C42.7747 95.3438 41.5168 94.4453 40.4856 93.2891C39.47 92.1172 38.6965 90.75 38.1653 89.1875C37.634 87.6094 37.3684 85.8984 37.3684 84.0547ZM44.1184 83.5625V84.0547C44.1184 85.1172 44.2122 86.1094 44.3997 87.0312C44.5872 87.9531 44.884 88.7656 45.2903 89.4688C45.7122 90.1562 46.259 90.6953 46.9309 91.0859C47.6028 91.4766 48.4231 91.6719 49.3918 91.6719C50.3293 91.6719 51.134 91.4766 51.8059 91.0859C52.4778 90.6953 53.0168 90.1562 53.4231 89.4688C53.8293 88.7656 54.1262 87.9531 54.3137 87.0312C54.5168 86.1094 54.6184 85.1172 54.6184 84.0547V83.5625C54.6184 82.5312 54.5168 81.5625 54.3137 80.6562C54.1262 79.7344 53.8215 78.9219 53.3997 78.2188C52.9934 77.5 52.4543 76.9375 51.7825 76.5312C51.1106 76.125 50.2981 75.9219 49.345 75.9219C48.3918 75.9219 47.5793 76.125 46.9075 76.5312C46.2512 76.9375 45.7122 77.5 45.2903 78.2188C44.884 78.9219 44.5872 79.7344 44.3997 80.6562C44.2122 81.5625 44.1184 82.5312 44.1184 83.5625ZM72.2903 76.6484V96.4766H65.5403V71.1172H71.8918L72.2903 76.6484ZM79.9309 70.9531L79.8137 77.2109C79.4856 77.1641 79.0872 77.125 78.6184 77.0938C78.1653 77.0469 77.7512 77.0234 77.3762 77.0234C76.4231 77.0234 75.595 77.1484 74.8918 77.3984C74.2043 77.6328 73.6262 77.9844 73.1575 78.4531C72.7043 78.9219 72.3606 79.4922 72.1262 80.1641C71.9075 80.8359 71.7825 81.6016 71.7512 82.4609L70.3918 82.0391C70.3918 80.3984 70.5559 78.8906 70.884 77.5156C71.2122 76.125 71.6887 74.9141 72.3137 73.8828C72.9543 72.8516 73.7356 72.0547 74.6575 71.4922C75.5793 70.9297 76.634 70.6484 77.8215 70.6484C78.1965 70.6484 78.5793 70.6797 78.97 70.7422C79.3606 70.7891 79.6809 70.8594 79.9309 70.9531ZM89.8684 60.4531V96.4766H83.1184V60.4531H89.8684ZM105.853 71.1172L94.8372 83.6797L88.9309 89.6562L86.47 84.7812L91.1575 78.8281L97.7434 71.1172H105.853ZM98.845 96.4766L91.345 84.7578L96.009 80.6797L106.626 96.4766H98.845ZM122.47 89.4688C122.47 88.9844 122.329 88.5469 122.048 88.1562C121.767 87.7656 121.243 87.4062 120.478 87.0781C119.728 86.7344 118.642 86.4219 117.22 86.1406C115.939 85.8594 114.743 85.5078 113.634 85.0859C112.54 84.6484 111.587 84.125 110.775 83.5156C109.978 82.9062 109.353 82.1875 108.9 81.3594C108.447 80.5156 108.22 79.5547 108.22 78.4766C108.22 77.4141 108.447 76.4141 108.9 75.4766C109.368 74.5391 110.032 73.7109 110.892 72.9922C111.767 72.2578 112.829 71.6875 114.079 71.2812C115.345 70.8594 116.767 70.6484 118.345 70.6484C120.548 70.6484 122.439 71 124.017 71.7031C125.611 72.4062 126.829 73.375 127.673 74.6094C128.532 75.8281 128.962 77.2188 128.962 78.7812H122.212C122.212 78.125 122.072 77.5391 121.79 77.0234C121.525 76.4922 121.103 76.0781 120.525 75.7812C119.962 75.4688 119.228 75.3125 118.322 75.3125C117.572 75.3125 116.923 75.4453 116.376 75.7109C115.829 75.9609 115.407 76.3047 115.111 76.7422C114.829 77.1641 114.689 77.6328 114.689 78.1484C114.689 78.5391 114.767 78.8906 114.923 79.2031C115.095 79.5 115.368 79.7734 115.743 80.0234C116.118 80.2734 116.603 80.5078 117.197 80.7266C117.806 80.9297 118.556 81.1172 119.447 81.2891C121.275 81.6641 122.907 82.1562 124.345 82.7656C125.782 83.3594 126.923 84.1719 127.767 85.2031C128.611 86.2188 129.032 87.5547 129.032 89.2109C129.032 90.3359 128.782 91.3672 128.282 92.3047C127.782 93.2422 127.064 94.0625 126.126 94.7656C125.189 95.4531 124.064 95.9922 122.751 96.3828C121.454 96.7578 119.993 96.9453 118.368 96.9453C116.009 96.9453 114.009 96.5234 112.368 95.6797C110.743 94.8359 109.509 93.7656 108.665 92.4688C107.837 91.1562 107.423 89.8125 107.423 88.4375H113.822C113.853 89.3594 114.087 90.1016 114.525 90.6641C114.978 91.2266 115.548 91.6328 116.236 91.8828C116.939 92.1328 117.697 92.2578 118.509 92.2578C119.384 92.2578 120.111 92.1406 120.689 91.9062C121.267 91.6562 121.704 91.3281 122.001 90.9219C122.314 90.5 122.47 90.0156 122.47 89.4688ZM159.056 90.7578V79.4609C159.056 78.6484 158.923 77.9531 158.657 77.375C158.392 76.7812 157.978 76.3203 157.415 75.9922C156.868 75.6641 156.157 75.5 155.282 75.5C154.532 75.5 153.884 75.6328 153.337 75.8984C152.79 76.1484 152.368 76.5156 152.072 77C151.775 77.4688 151.626 78.0234 151.626 78.6641H144.876C144.876 77.5859 145.126 76.5625 145.626 75.5938C146.126 74.625 146.853 73.7734 147.806 73.0391C148.759 72.2891 149.892 71.7031 151.204 71.2812C152.532 70.8594 154.017 70.6484 155.657 70.6484C157.626 70.6484 159.376 70.9766 160.907 71.6328C162.439 72.2891 163.642 73.2734 164.517 74.5859C165.407 75.8984 165.853 77.5391 165.853 79.5078V90.3594C165.853 91.75 165.939 92.8906 166.111 93.7812C166.282 94.6562 166.532 95.4219 166.861 96.0781V96.4766H160.04C159.712 95.7891 159.462 94.9297 159.29 93.8984C159.134 92.8516 159.056 91.8047 159.056 90.7578ZM159.947 81.0312L159.993 84.8516H156.22C155.329 84.8516 154.556 84.9531 153.9 85.1562C153.243 85.3594 152.704 85.6484 152.282 86.0234C151.861 86.3828 151.548 86.8047 151.345 87.2891C151.157 87.7734 151.064 88.3047 151.064 88.8828C151.064 89.4609 151.197 89.9844 151.462 90.4531C151.728 90.9062 152.111 91.2656 152.611 91.5312C153.111 91.7812 153.697 91.9062 154.368 91.9062C155.384 91.9062 156.267 91.7031 157.017 91.2969C157.767 90.8906 158.345 90.3906 158.751 89.7969C159.173 89.2031 159.392 88.6406 159.407 88.1094L161.189 90.9688C160.939 91.6094 160.595 92.2734 160.157 92.9609C159.736 93.6484 159.197 94.2969 158.54 94.9062C157.884 95.5 157.095 95.9922 156.173 96.3828C155.251 96.7578 154.157 96.9453 152.892 96.9453C151.282 96.9453 149.822 96.625 148.509 95.9844C147.212 95.3281 146.181 94.4297 145.415 93.2891C144.665 92.1328 144.29 90.8203 144.29 89.3516C144.29 88.0234 144.54 86.8438 145.04 85.8125C145.54 84.7812 146.275 83.9141 147.243 83.2109C148.228 82.4922 149.454 81.9531 150.923 81.5938C152.392 81.2188 154.095 81.0312 156.032 81.0312H159.947ZM177.806 76.6484V96.4766H171.056V71.1172H177.407L177.806 76.6484ZM185.447 70.9531L185.329 77.2109C185.001 77.1641 184.603 77.125 184.134 77.0938C183.681 77.0469 183.267 77.0234 182.892 77.0234C181.939 77.0234 181.111 77.1484 180.407 77.3984C179.72 77.6328 179.142 77.9844 178.673 78.4531C178.22 78.9219 177.876 79.4922 177.642 80.1641C177.423 80.8359 177.298 81.6016 177.267 82.4609L175.907 82.0391C175.907 80.3984 176.072 78.8906 176.4 77.5156C176.728 76.125 177.204 74.9141 177.829 73.8828C178.47 72.8516 179.251 72.0547 180.173 71.4922C181.095 70.9297 182.15 70.6484 183.337 70.6484C183.712 70.6484 184.095 70.6797 184.486 70.7422C184.876 70.7891 185.197 70.8594 185.447 70.9531ZM199.837 96.9453C197.868 96.9453 196.103 96.6328 194.54 96.0078C192.978 95.3672 191.65 94.4844 190.556 93.3594C189.478 92.2344 188.65 90.9297 188.072 89.4453C187.493 87.9453 187.204 86.3516 187.204 84.6641V83.7266C187.204 81.8047 187.478 80.0469 188.025 78.4531C188.572 76.8594 189.353 75.4766 190.368 74.3047C191.4 73.1328 192.65 72.2344 194.118 71.6094C195.587 70.9688 197.243 70.6484 199.087 70.6484C200.884 70.6484 202.478 70.9453 203.868 71.5391C205.259 72.1328 206.423 72.9766 207.361 74.0703C208.314 75.1641 209.032 76.4766 209.517 78.0078C210.001 79.5234 210.243 81.2109 210.243 83.0703V85.8828H190.087V81.3828H203.611V80.8672C203.611 79.9297 203.439 79.0938 203.095 78.3594C202.767 77.6094 202.267 77.0156 201.595 76.5781C200.923 76.1406 200.064 75.9219 199.017 75.9219C198.126 75.9219 197.361 76.1172 196.72 76.5078C196.079 76.8984 195.556 77.4453 195.15 78.1484C194.759 78.8516 194.462 79.6797 194.259 80.6328C194.072 81.5703 193.978 82.6016 193.978 83.7266V84.6641C193.978 85.6797 194.118 86.6172 194.4 87.4766C194.697 88.3359 195.111 89.0781 195.642 89.7031C196.189 90.3281 196.845 90.8125 197.611 91.1562C198.392 91.5 199.275 91.6719 200.259 91.6719C201.478 91.6719 202.611 91.4375 203.657 90.9688C204.72 90.4844 205.634 89.7578 206.4 88.7891L209.681 92.3516C209.15 93.1172 208.423 93.8516 207.501 94.5547C206.595 95.2578 205.501 95.8359 204.22 96.2891C202.939 96.7266 201.478 96.9453 199.837 96.9453ZM10.4387 149.914L15.7122 131.117H20.0012L18.6184 138.5L13.345 156.477H9.75903L10.4387 149.914ZM7.76685 131.117L11.5403 149.891L11.8918 156.477H7.6731L1.25122 131.117H7.76685ZM24.8293 149.586L28.509 131.117H35.0481L28.6262 156.477H24.4309L24.8293 149.586ZM20.5872 131.117L25.8372 149.773L26.5637 156.477H22.9543L17.6809 138.523L16.345 131.117H20.5872ZM52.134 150.758V139.461C52.134 138.648 52.0012 137.953 51.7356 137.375C51.47 136.781 51.0559 136.32 50.4934 135.992C49.9465 135.664 49.2356 135.5 48.3606 135.5C47.6106 135.5 46.9622 135.633 46.4153 135.898C45.8684 136.148 45.4465 136.516 45.1497 137C44.8528 137.469 44.7043 138.023 44.7043 138.664H37.9543C37.9543 137.586 38.2043 136.562 38.7043 135.594C39.2043 134.625 39.9309 133.773 40.884 133.039C41.8372 132.289 42.97 131.703 44.2825 131.281C45.6106 130.859 47.095 130.648 48.7356 130.648C50.7043 130.648 52.4543 130.977 53.9856 131.633C55.5168 132.289 56.72 133.273 57.595 134.586C58.4856 135.898 58.9309 137.539 58.9309 139.508V150.359C58.9309 151.75 59.0168 152.891 59.1887 153.781C59.3606 154.656 59.6106 155.422 59.9387 156.078V156.477H53.1184C52.7903 155.789 52.5403 154.93 52.3684 153.898C52.2122 152.852 52.134 151.805 52.134 150.758ZM53.0247 141.031L53.0715 144.852H49.2981C48.4075 144.852 47.634 144.953 46.9778 145.156C46.3215 145.359 45.7825 145.648 45.3606 146.023C44.9387 146.383 44.6262 146.805 44.4231 147.289C44.2356 147.773 44.1418 148.305 44.1418 148.883C44.1418 149.461 44.2747 149.984 44.5403 150.453C44.8059 150.906 45.1887 151.266 45.6887 151.531C46.1887 151.781 46.7747 151.906 47.4465 151.906C48.4622 151.906 49.345 151.703 50.095 151.297C50.845 150.891 51.4231 150.391 51.8293 149.797C52.2512 149.203 52.47 148.641 52.4856 148.109L54.2668 150.969C54.0168 151.609 53.6731 152.273 53.2356 152.961C52.8137 153.648 52.2747 154.297 51.6184 154.906C50.9622 155.5 50.1731 155.992 49.2512 156.383C48.3293 156.758 47.2356 156.945 45.97 156.945C44.3606 156.945 42.8997 156.625 41.5872 155.984C40.2903 155.328 39.259 154.43 38.4934 153.289C37.7434 152.133 37.3684 150.82 37.3684 149.352C37.3684 148.023 37.6184 146.844 38.1184 145.812C38.6184 144.781 39.3528 143.914 40.3215 143.211C41.3059 142.492 42.5325 141.953 44.0012 141.594C45.47 141.219 47.1731 141.031 49.1106 141.031H53.0247ZM71.259 131.117V156.477H64.4856V131.117H71.259ZM64.0637 124.508C64.0637 123.523 64.4075 122.711 65.095 122.07C65.7825 121.43 66.7043 121.109 67.8606 121.109C69.0012 121.109 69.9153 121.43 70.6028 122.07C71.3059 122.711 71.6575 123.523 71.6575 124.508C71.6575 125.492 71.3059 126.305 70.6028 126.945C69.9153 127.586 69.0012 127.906 67.8606 127.906C66.7043 127.906 65.7825 127.586 65.095 126.945C64.4075 126.305 64.0637 125.492 64.0637 124.508ZM89.259 131.117V135.898H74.4934V131.117H89.259ZM78.1497 124.859H84.8997V148.836C84.8997 149.57 84.9934 150.133 85.1809 150.523C85.384 150.914 85.6809 151.188 86.0715 151.344C86.4622 151.484 86.9543 151.555 87.5481 151.555C87.97 151.555 88.345 151.539 88.6731 151.508C89.0168 151.461 89.3059 151.414 89.5403 151.367L89.5637 156.336C88.9856 156.523 88.3606 156.672 87.6887 156.781C87.0168 156.891 86.2747 156.945 85.4622 156.945C83.9778 156.945 82.6809 156.703 81.5715 156.219C80.4778 155.719 79.634 154.922 79.0403 153.828C78.4465 152.734 78.1497 151.297 78.1497 149.516V124.859ZM100.228 131.117V156.477H93.4543V131.117H100.228ZM93.0325 124.508C93.0325 123.523 93.3762 122.711 94.0637 122.07C94.7512 121.43 95.6731 121.109 96.8293 121.109C97.97 121.109 98.884 121.43 99.5715 122.07C100.275 122.711 100.626 123.523 100.626 124.508C100.626 125.492 100.275 126.305 99.5715 126.945C98.884 127.586 97.97 127.906 96.8293 127.906C95.6731 127.906 94.7512 127.586 94.0637 126.945C93.3762 126.305 93.0325 125.492 93.0325 124.508ZM112.415 136.531V156.477H105.665V131.117H111.993L112.415 136.531ZM111.431 142.906H109.603C109.603 141.031 109.845 139.344 110.329 137.844C110.814 136.328 111.493 135.039 112.368 133.977C113.243 132.898 114.282 132.078 115.486 131.516C116.704 130.938 118.064 130.648 119.564 130.648C120.751 130.648 121.837 130.82 122.822 131.164C123.806 131.508 124.65 132.055 125.353 132.805C126.072 133.555 126.618 134.547 126.993 135.781C127.384 137.016 127.579 138.523 127.579 140.305V156.477H120.782V140.281C120.782 139.156 120.626 138.281 120.314 137.656C120.001 137.031 119.54 136.594 118.931 136.344C118.337 136.078 117.603 135.945 116.728 135.945C115.822 135.945 115.032 136.125 114.361 136.484C113.704 136.844 113.157 137.344 112.72 137.984C112.298 138.609 111.978 139.344 111.759 140.188C111.54 141.031 111.431 141.938 111.431 142.906ZM148.767 131.117H154.884V155.633C154.884 157.945 154.368 159.906 153.337 161.516C152.322 163.141 150.9 164.367 149.072 165.195C147.243 166.039 145.118 166.461 142.697 166.461C141.634 166.461 140.509 166.32 139.322 166.039C138.15 165.758 137.025 165.32 135.947 164.727C134.884 164.133 133.993 163.383 133.275 162.477L136.251 158.492C137.032 159.398 137.939 160.102 138.97 160.602C140.001 161.117 141.142 161.375 142.392 161.375C143.611 161.375 144.642 161.148 145.486 160.695C146.329 160.258 146.978 159.609 147.431 158.75C147.884 157.906 148.111 156.883 148.111 155.68V136.977L148.767 131.117ZM131.704 144.102V143.609C131.704 141.672 131.939 139.914 132.407 138.336C132.892 136.742 133.572 135.375 134.447 134.234C135.337 133.094 136.415 132.211 137.681 131.586C138.947 130.961 140.376 130.648 141.97 130.648C143.657 130.648 145.072 130.961 146.212 131.586C147.353 132.211 148.29 133.102 149.025 134.258C149.759 135.398 150.329 136.75 150.736 138.312C151.157 139.859 151.486 141.555 151.72 143.398V144.477C151.486 146.242 151.134 147.883 150.665 149.398C150.197 150.914 149.579 152.242 148.814 153.383C148.048 154.508 147.095 155.383 145.954 156.008C144.829 156.633 143.486 156.945 141.923 156.945C140.361 156.945 138.947 156.625 137.681 155.984C136.431 155.344 135.361 154.445 134.47 153.289C133.579 152.133 132.892 150.773 132.407 149.211C131.939 147.648 131.704 145.945 131.704 144.102ZM138.454 143.609V144.102C138.454 145.148 138.556 146.125 138.759 147.031C138.962 147.938 139.275 148.742 139.697 149.445C140.134 150.133 140.673 150.672 141.314 151.062C141.97 151.438 142.743 151.625 143.634 151.625C144.868 151.625 145.876 151.367 146.657 150.852C147.439 150.32 148.025 149.594 148.415 148.672C148.806 147.75 149.032 146.688 149.095 145.484V142.414C149.064 141.43 148.931 140.547 148.697 139.766C148.462 138.969 148.134 138.289 147.712 137.727C147.29 137.164 146.743 136.727 146.072 136.414C145.4 136.102 144.603 135.945 143.681 135.945C142.79 135.945 142.017 136.148 141.361 136.555C140.72 136.945 140.181 137.484 139.743 138.172C139.322 138.859 139.001 139.672 138.782 140.609C138.564 141.531 138.454 142.531 138.454 143.609ZM180.689 156.477H173.892V128.867C173.892 126.945 174.267 125.328 175.017 124.016C175.782 122.688 176.853 121.688 178.228 121.016C179.618 120.328 181.267 119.984 183.173 119.984C183.798 119.984 184.4 120.031 184.978 120.125C185.556 120.203 186.118 120.305 186.665 120.43L186.595 125.516C186.298 125.438 185.986 125.383 185.657 125.352C185.329 125.32 184.947 125.305 184.509 125.305C183.697 125.305 183.001 125.445 182.423 125.727C181.861 125.992 181.431 126.391 181.134 126.922C180.837 127.453 180.689 128.102 180.689 128.867V156.477ZM185.751 131.117V135.898H170.118V131.117H185.751ZM188.212 144.055V143.562C188.212 141.703 188.478 139.992 189.009 138.43C189.54 136.852 190.314 135.484 191.329 134.328C192.345 133.172 193.595 132.273 195.079 131.633C196.564 130.977 198.267 130.648 200.189 130.648C202.111 130.648 203.822 130.977 205.322 131.633C206.822 132.273 208.079 133.172 209.095 134.328C210.126 135.484 210.907 136.852 211.439 138.43C211.97 139.992 212.236 141.703 212.236 143.562V144.055C212.236 145.898 211.97 147.609 211.439 149.188C210.907 150.75 210.126 152.117 209.095 153.289C208.079 154.445 206.829 155.344 205.345 155.984C203.861 156.625 202.157 156.945 200.236 156.945C198.314 156.945 196.603 156.625 195.103 155.984C193.618 155.344 192.361 154.445 191.329 153.289C190.314 152.117 189.54 150.75 189.009 149.188C188.478 147.609 188.212 145.898 188.212 144.055ZM194.962 143.562V144.055C194.962 145.117 195.056 146.109 195.243 147.031C195.431 147.953 195.728 148.766 196.134 149.469C196.556 150.156 197.103 150.695 197.775 151.086C198.447 151.477 199.267 151.672 200.236 151.672C201.173 151.672 201.978 151.477 202.65 151.086C203.322 150.695 203.861 150.156 204.267 149.469C204.673 148.766 204.97 147.953 205.157 147.031C205.361 146.109 205.462 145.117 205.462 144.055V143.562C205.462 142.531 205.361 141.562 205.157 140.656C204.97 139.734 204.665 138.922 204.243 138.219C203.837 137.5 203.298 136.938 202.626 136.531C201.954 136.125 201.142 135.922 200.189 135.922C199.236 135.922 198.423 136.125 197.751 136.531C197.095 136.938 196.556 137.5 196.134 138.219C195.728 138.922 195.431 139.734 195.243 140.656C195.056 141.562 194.962 142.531 194.962 143.562ZM223.134 136.648V156.477H216.384V131.117H222.736L223.134 136.648ZM230.775 130.953L230.657 137.211C230.329 137.164 229.931 137.125 229.462 137.094C229.009 137.047 228.595 137.023 228.22 137.023C227.267 137.023 226.439 137.148 225.736 137.398C225.048 137.633 224.47 137.984 224.001 138.453C223.548 138.922 223.204 139.492 222.97 140.164C222.751 140.836 222.626 141.602 222.595 142.461L221.236 142.039C221.236 140.398 221.4 138.891 221.728 137.516C222.056 136.125 222.532 134.914 223.157 133.883C223.798 132.852 224.579 132.055 225.501 131.492C226.423 130.93 227.478 130.648 228.665 130.648C229.04 130.648 229.423 130.68 229.814 130.742C230.204 130.789 230.525 130.859 230.775 130.953ZM10.72 213.617L17.4465 191.117H24.6887L14.4934 220.297C14.2747 220.938 13.9778 221.625 13.6028 222.359C13.2434 223.094 12.7512 223.789 12.1262 224.445C11.5168 225.117 10.7434 225.664 9.80591 226.086C8.88403 226.508 7.75122 226.719 6.40747 226.719C5.76685 226.719 5.24341 226.68 4.83716 226.602C4.43091 226.523 3.94653 226.414 3.38403 226.273V221.328C3.55591 221.328 3.7356 221.328 3.9231 221.328C4.1106 221.344 4.29028 221.352 4.46216 221.352C5.35278 221.352 6.07935 221.25 6.64185 221.047C7.20435 220.844 7.65747 220.531 8.00122 220.109C8.34497 219.703 8.61841 219.172 8.82153 218.516L10.72 213.617ZM7.90747 191.117L13.4153 209.492L14.3762 216.641L9.78247 217.133L0.665283 191.117H7.90747ZM25.9309 204.055V203.562C25.9309 201.703 26.1965 199.992 26.7278 198.43C27.259 196.852 28.0325 195.484 29.0481 194.328C30.0637 193.172 31.3137 192.273 32.7981 191.633C34.2825 190.977 35.9856 190.648 37.9075 190.648C39.8293 190.648 41.5403 190.977 43.0403 191.633C44.5403 192.273 45.7981 193.172 46.8137 194.328C47.845 195.484 48.6262 196.852 49.1575 198.43C49.6887 199.992 49.9543 201.703 49.9543 203.562V204.055C49.9543 205.898 49.6887 207.609 49.1575 209.188C48.6262 210.75 47.845 212.117 46.8137 213.289C45.7981 214.445 44.5481 215.344 43.0637 215.984C41.5793 216.625 39.8762 216.945 37.9543 216.945C36.0325 216.945 34.3215 216.625 32.8215 215.984C31.3372 215.344 30.0793 214.445 29.0481 213.289C28.0325 212.117 27.259 210.75 26.7278 209.188C26.1965 207.609 25.9309 205.898 25.9309 204.055ZM32.6809 203.562V204.055C32.6809 205.117 32.7747 206.109 32.9622 207.031C33.1497 207.953 33.4465 208.766 33.8528 209.469C34.2747 210.156 34.8215 210.695 35.4934 211.086C36.1653 211.477 36.9856 211.672 37.9543 211.672C38.8918 211.672 39.6965 211.477 40.3684 211.086C41.0403 210.695 41.5793 210.156 41.9856 209.469C42.3918 208.766 42.6887 207.953 42.8762 207.031C43.0793 206.109 43.1809 205.117 43.1809 204.055V203.562C43.1809 202.531 43.0793 201.562 42.8762 200.656C42.6887 199.734 42.384 198.922 41.9622 198.219C41.5559 197.5 41.0168 196.938 40.345 196.531C39.6731 196.125 38.8606 195.922 37.9075 195.922C36.9543 195.922 36.1418 196.125 35.47 196.531C34.8137 196.938 34.2747 197.5 33.8528 198.219C33.4465 198.922 33.1497 199.734 32.9622 200.656C32.7747 201.562 32.6809 202.531 32.6809 203.562ZM69.1028 210.406V191.117H75.8528V216.477H69.5012L69.1028 210.406ZM69.8528 205.203L71.845 205.156C71.845 206.844 71.6497 208.414 71.259 209.867C70.8684 211.305 70.2825 212.555 69.5012 213.617C68.72 214.664 67.7356 215.484 66.5481 216.078C65.3606 216.656 63.9622 216.945 62.3528 216.945C61.1184 216.945 59.9778 216.773 58.9309 216.43C57.8997 216.07 57.009 215.516 56.259 214.766C55.5247 214 54.9465 213.023 54.5247 211.836C54.1184 210.633 53.9153 209.188 53.9153 207.5V191.117H60.6653V207.547C60.6653 208.297 60.7512 208.93 60.9231 209.445C61.1106 209.961 61.3684 210.383 61.6965 210.711C62.0247 211.039 62.4075 211.273 62.845 211.414C63.2981 211.555 63.7981 211.625 64.345 211.625C65.7356 211.625 66.8293 211.344 67.6262 210.781C68.4387 210.219 69.009 209.453 69.3372 208.484C69.6809 207.5 69.8528 206.406 69.8528 205.203ZM115.322 210.992V216.477H98.1418V210.992H115.322ZM100.415 182.352V216.477H93.384V182.352H100.415ZM117.853 204.055V203.562C117.853 201.703 118.118 199.992 118.65 198.43C119.181 196.852 119.954 195.484 120.97 194.328C121.986 193.172 123.236 192.273 124.72 191.633C126.204 190.977 127.907 190.648 129.829 190.648C131.751 190.648 133.462 190.977 134.962 191.633C136.462 192.273 137.72 193.172 138.736 194.328C139.767 195.484 140.548 196.852 141.079 198.43C141.611 199.992 141.876 201.703 141.876 203.562V204.055C141.876 205.898 141.611 207.609 141.079 209.188C140.548 210.75 139.767 212.117 138.736 213.289C137.72 214.445 136.47 215.344 134.986 215.984C133.501 216.625 131.798 216.945 129.876 216.945C127.954 216.945 126.243 216.625 124.743 215.984C123.259 215.344 122.001 214.445 120.97 213.289C119.954 212.117 119.181 210.75 118.65 209.188C118.118 207.609 117.853 205.898 117.853 204.055ZM124.603 203.562V204.055C124.603 205.117 124.697 206.109 124.884 207.031C125.072 207.953 125.368 208.766 125.775 209.469C126.197 210.156 126.743 210.695 127.415 211.086C128.087 211.477 128.907 211.672 129.876 211.672C130.814 211.672 131.618 211.477 132.29 211.086C132.962 210.695 133.501 210.156 133.907 209.469C134.314 208.766 134.611 207.953 134.798 207.031C135.001 206.109 135.103 205.117 135.103 204.055V203.562C135.103 202.531 135.001 201.562 134.798 200.656C134.611 199.734 134.306 198.922 133.884 198.219C133.478 197.5 132.939 196.938 132.267 196.531C131.595 196.125 130.782 195.922 129.829 195.922C128.876 195.922 128.064 196.125 127.392 196.531C126.736 196.938 126.197 197.5 125.775 198.219C125.368 198.922 125.072 199.734 124.884 200.656C124.697 201.562 124.603 202.531 124.603 203.562ZM162.079 191.117H168.197V215.633C168.197 217.945 167.681 219.906 166.65 221.516C165.634 223.141 164.212 224.367 162.384 225.195C160.556 226.039 158.431 226.461 156.009 226.461C154.947 226.461 153.822 226.32 152.634 226.039C151.462 225.758 150.337 225.32 149.259 224.727C148.197 224.133 147.306 223.383 146.587 222.477L149.564 218.492C150.345 219.398 151.251 220.102 152.282 220.602C153.314 221.117 154.454 221.375 155.704 221.375C156.923 221.375 157.954 221.148 158.798 220.695C159.642 220.258 160.29 219.609 160.743 218.75C161.197 217.906 161.423 216.883 161.423 215.68V196.977L162.079 191.117ZM145.017 204.102V203.609C145.017 201.672 145.251 199.914 145.72 198.336C146.204 196.742 146.884 195.375 147.759 194.234C148.65 193.094 149.728 192.211 150.993 191.586C152.259 190.961 153.689 190.648 155.282 190.648C156.97 190.648 158.384 190.961 159.525 191.586C160.665 192.211 161.603 193.102 162.337 194.258C163.072 195.398 163.642 196.75 164.048 198.312C164.47 199.859 164.798 201.555 165.032 203.398V204.477C164.798 206.242 164.447 207.883 163.978 209.398C163.509 210.914 162.892 212.242 162.126 213.383C161.361 214.508 160.407 215.383 159.267 216.008C158.142 216.633 156.798 216.945 155.236 216.945C153.673 216.945 152.259 216.625 150.993 215.984C149.743 215.344 148.673 214.445 147.782 213.289C146.892 212.133 146.204 210.773 145.72 209.211C145.251 207.648 145.017 205.945 145.017 204.102ZM151.767 203.609V204.102C151.767 205.148 151.868 206.125 152.072 207.031C152.275 207.938 152.587 208.742 153.009 209.445C153.447 210.133 153.986 210.672 154.626 211.062C155.282 211.438 156.056 211.625 156.947 211.625C158.181 211.625 159.189 211.367 159.97 210.852C160.751 210.32 161.337 209.594 161.728 208.672C162.118 207.75 162.345 206.688 162.407 205.484V202.414C162.376 201.43 162.243 200.547 162.009 199.766C161.775 198.969 161.447 198.289 161.025 197.727C160.603 197.164 160.056 196.727 159.384 196.414C158.712 196.102 157.915 195.945 156.993 195.945C156.103 195.945 155.329 196.148 154.673 196.555C154.032 196.945 153.493 197.484 153.056 198.172C152.634 198.859 152.314 199.672 152.095 200.609C151.876 201.531 151.767 202.531 151.767 203.609ZM180.572 191.117V216.477H173.798V191.117H180.572ZM173.376 184.508C173.376 183.523 173.72 182.711 174.407 182.07C175.095 181.43 176.017 181.109 177.173 181.109C178.314 181.109 179.228 181.43 179.915 182.07C180.618 182.711 180.97 183.523 180.97 184.508C180.97 185.492 180.618 186.305 179.915 186.945C179.228 187.586 178.314 187.906 177.173 187.906C176.017 187.906 175.095 187.586 174.407 186.945C173.72 186.305 173.376 185.492 173.376 184.508ZM192.759 196.531V216.477H186.009V191.117H192.337L192.759 196.531ZM191.775 202.906H189.947C189.947 201.031 190.189 199.344 190.673 197.844C191.157 196.328 191.837 195.039 192.712 193.977C193.587 192.898 194.626 192.078 195.829 191.516C197.048 190.938 198.407 190.648 199.907 190.648C201.095 190.648 202.181 190.82 203.165 191.164C204.15 191.508 204.993 192.055 205.697 192.805C206.415 193.555 206.962 194.547 207.337 195.781C207.728 197.016 207.923 198.523 207.923 200.305V216.477H201.126V200.281C201.126 199.156 200.97 198.281 200.657 197.656C200.345 197.031 199.884 196.594 199.275 196.344C198.681 196.078 197.947 195.945 197.072 195.945C196.165 195.945 195.376 196.125 194.704 196.484C194.048 196.844 193.501 197.344 193.064 197.984C192.642 198.609 192.322 199.344 192.103 200.188C191.884 201.031 191.775 201.938 191.775 202.906ZM31.3918 242.352V276.477H24.3606L10.6497 253.602V276.477H3.61841V242.352H10.6497L24.384 265.25V242.352H31.3918ZM36.009 264.055V263.562C36.009 261.703 36.2747 259.992 36.8059 258.43C37.3372 256.852 38.1106 255.484 39.1262 254.328C40.1418 253.172 41.3918 252.273 42.8762 251.633C44.3606 250.977 46.0637 250.648 47.9856 250.648C49.9075 250.648 51.6184 250.977 53.1184 251.633C54.6184 252.273 55.8762 253.172 56.8918 254.328C57.9231 255.484 58.7043 256.852 59.2356 258.43C59.7668 259.992 60.0325 261.703 60.0325 263.562V264.055C60.0325 265.898 59.7668 267.609 59.2356 269.188C58.7043 270.75 57.9231 272.117 56.8918 273.289C55.8762 274.445 54.6262 275.344 53.1418 275.984C51.6575 276.625 49.9543 276.945 48.0325 276.945C46.1106 276.945 44.3997 276.625 42.8997 275.984C41.4153 275.344 40.1575 274.445 39.1262 273.289C38.1106 272.117 37.3372 270.75 36.8059 269.188C36.2747 267.609 36.009 265.898 36.009 264.055ZM42.759 263.562V264.055C42.759 265.117 42.8528 266.109 43.0403 267.031C43.2278 267.953 43.5247 268.766 43.9309 269.469C44.3528 270.156 44.8997 270.695 45.5715 271.086C46.2434 271.477 47.0637 271.672 48.0325 271.672C48.97 271.672 49.7747 271.477 50.4465 271.086C51.1184 270.695 51.6575 270.156 52.0637 269.469C52.47 268.766 52.7668 267.953 52.9543 267.031C53.1575 266.109 53.259 265.117 53.259 264.055V263.562C53.259 262.531 53.1575 261.562 52.9543 260.656C52.7668 259.734 52.4622 258.922 52.0403 258.219C51.634 257.5 51.095 256.938 50.4231 256.531C49.7512 256.125 48.9387 255.922 47.9856 255.922C47.0325 255.922 46.22 256.125 45.5481 256.531C44.8918 256.938 44.3528 257.5 43.9309 258.219C43.5247 258.922 43.2278 259.734 43.0403 260.656C42.8528 261.562 42.759 262.531 42.759 263.562ZM71.4231 269.914L76.6965 251.117H80.9856L79.6028 258.5L74.3293 276.477H70.7434L71.4231 269.914ZM68.7512 251.117L72.5247 269.891L72.8762 276.477H68.6575L62.2356 251.117H68.7512ZM85.8137 269.586L89.4934 251.117H96.0325L89.6106 276.477H85.4153L85.8137 269.586ZM81.5715 251.117L86.8215 269.773L87.5481 276.477H83.9387L78.6653 258.523L77.3293 251.117H81.5715ZM107.048 242.352L106.275 266.047H100.65L99.8528 242.352H107.048ZM99.6653 273.383C99.6653 272.383 100.009 271.555 100.697 270.898C101.4 270.227 102.322 269.891 103.462 269.891C104.618 269.891 105.54 270.227 106.228 270.898C106.915 271.555 107.259 272.383 107.259 273.383C107.259 274.352 106.915 275.172 106.228 275.844C105.54 276.516 104.618 276.852 103.462 276.852C102.322 276.852 101.4 276.516 100.697 275.844C100.009 275.172 99.6653 274.352 99.6653 273.383ZM120.032 242.352L119.259 266.047H113.634L112.837 242.352H120.032ZM112.65 273.383C112.65 272.383 112.993 271.555 113.681 270.898C114.384 270.227 115.306 269.891 116.447 269.891C117.603 269.891 118.525 270.227 119.212 270.898C119.9 271.555 120.243 272.383 120.243 273.383C120.243 274.352 119.9 275.172 119.212 275.844C118.525 276.516 117.603 276.852 116.447 276.852C115.306 276.852 114.384 276.516 113.681 275.844C112.993 275.172 112.65 274.352 112.65 273.383ZM133.017 242.352L132.243 266.047H126.618L125.822 242.352H133.017ZM125.634 273.383C125.634 272.383 125.978 271.555 126.665 270.898C127.368 270.227 128.29 269.891 129.431 269.891C130.587 269.891 131.509 270.227 132.197 270.898C132.884 271.555 133.228 272.383 133.228 273.383C133.228 274.352 132.884 275.172 132.197 275.844C131.509 276.516 130.587 276.852 129.431 276.852C128.29 276.852 127.368 276.516 126.665 275.844C125.978 275.172 125.634 274.352 125.634 273.383Z" fill="white"/>
</svg>
